<?xml version="1.0" standalone="no"?><!DOCTYPE svg PUBLIC "-//W3C//DTD SVG 1.1//EN" "http://www.w3.org/Graphics/SVG/1.1/DTD/svg11.dtd"><svg t="1569004048842" class="icon" viewBox="0 0 1024 1024" version="1.1" xmlns="http://www.w3.org/2000/svg" p-id="30163" xmlns:xlink="http://www.w3.org/1999/xlink" width="16" height="16"><defs><style type="text/css"></style></defs><path d="M448 277.333333C365.653333 277.333333 298.666667 344.32 298.666667 426.666667v21.333333h-21.333334a21.333333 21.333333 0 0 0-21.333333 21.333333v256a21.333333 21.333333 0 0 0 21.333333 21.333334h341.333334a21.333333 21.333333 0 0 0 21.333333-21.333334v-256a21.333333 21.333333 0 0 0-21.333333-21.333333H597.333333V426.666667c0-82.346667-66.986667-149.333333-149.333333-149.333334z m21.333333 334.762667V640a21.333333 21.333333 0 0 1-42.666666 0v-27.904a42.154667 42.154667 0 0 1-21.333334-36.096 42.709333 42.709333 0 0 1 85.333334 0 42.112 42.112 0 0 1-21.333334 36.096z m85.333334-164.096H341.333333V426.666667c0-58.794667 47.829333-106.666667 106.666667-106.666667S554.666667 367.872 554.666667 426.666667v21.333333z" p-id="30164" fill="#ffffff"></path><path d="M1017.770667 411.562667a21.333333 21.333333 0 0 0-30.165334 0l-91.989333 91.989333C891.008 260.48 692.224 64 448 64 200.96 64 0 264.96 0 512s200.96 448 448 448c117.973333 0 229.376-45.482667 313.642667-128.085333a21.333333 21.333333 0 0 0-29.824-30.464A403.2 403.2 0 0 1 448 917.333333C224.512 917.333333 42.666667 735.488 42.666667 512s181.845333-405.333333 405.333333-405.333333c220.373333 0 399.872 176.853333 404.864 396.032l-91.093333-91.093334a21.333333 21.333333 0 0 0-30.165334 30.165334l128 128a21.248 21.248 0 0 0 30.208 0l128-128a21.418667 21.418667 0 0 0-0.042666-30.208z" p-id="30165" fill="#ffffff"></path></svg>