<?xml version="1.0" standalone="no"?><!DOCTYPE svg PUBLIC "-//W3C//DTD SVG 1.1//EN" "http://www.w3.org/Graphics/SVG/1.1/DTD/svg11.dtd"><svg t="1569004359239" class="icon" viewBox="0 0 1024 1024" version="1.1" xmlns="http://www.w3.org/2000/svg" p-id="35931" xmlns:xlink="http://www.w3.org/1999/xlink" width="16" height="16"><defs><style type="text/css"></style></defs><path d="M46.304417 599.496632a44.224877 44.224877 0 0 1 13.378372-71.813437l680.737316-300.493484a44.571467 44.571467 0 0 1 49.215772 9.219292 44.571467 44.571467 0 0 1 9.080657 49.285091l-301.567913 676.890167a44.259536 44.259536 0 0 1-84.429311-12.997123l-34.762972-301.706549-305.553698-35.664106a44.259536 44.259536 0 0 1-26.132882-12.685192zM755.046201 260.635641L74.274226 561.129125a7.867592 7.867592 0 0 0 2.287493 15.007345l319.833204 37.431714a18.195972 18.195972 0 0 1 15.977797 16.012456l36.565239 315.951396a7.867592 7.867592 0 0 0 14.938027 2.356812l301.533254-676.890168a7.867592 7.867592 0 0 0-10.32838-10.32838z" fill="#ffffff" p-id="35932"></path></svg>