<?xml version="1.0" standalone="no"?><!DOCTYPE svg PUBLIC "-//W3C//DTD SVG 1.1//EN" "http://www.w3.org/Graphics/SVG/1.1/DTD/svg11.dtd"><svg t="1569003731942" class="icon" viewBox="0 0 1024 1024" version="1.1" xmlns="http://www.w3.org/2000/svg" p-id="6065" xmlns:xlink="http://www.w3.org/1999/xlink" width="16" height="16"><defs><style type="text/css"></style></defs><path d="M889.627 451.324C788.759 350.456 654.649 294.905 512 294.905s-276.759 55.551-377.627 156.418L64 380.951c60.464-60.464 130.988-107.288 209.613-139.172C349.53 210.993 429.736 195.383 512 195.383c82.264 0 162.47 15.61 238.387 46.396C829.012 273.663 899.536 320.487 960 380.951l-70.373 70.373z" fill="#ffffff" p-id="6066"></path><path d="M733.56 607.391c-59.148-59.148-137.789-91.723-221.438-91.723-83.648 0-162.29 32.575-221.438 91.723l-70.373-70.373c39.379-39.379 85.319-69.878 136.543-90.65 49.452-20.054 101.692-30.222 155.267-30.222 53.576 0 105.815 10.168 155.267 30.222 51.225 20.772 97.165 51.272 136.543 90.651l-70.371 70.372zM512.244 828.617L387.459 703.832c68.917-68.917 180.654-68.917 249.571 0L512.244 828.617z" fill="#ffffff" p-id="6067"></path></svg>