<?xml version="1.0" standalone="no"?><!DOCTYPE svg PUBLIC "-//W3C//DTD SVG 1.1//EN" "http://www.w3.org/Graphics/SVG/1.1/DTD/svg11.dtd"><svg t="1568556371887" class="icon" viewBox="0 0 1024 1024" version="1.1" xmlns="http://www.w3.org/2000/svg" p-id="2648" xmlns:xlink="http://www.w3.org/1999/xlink" width="128" height="128"><defs><style type="text/css"></style></defs><path d="M590.994 848.457H433.006c-152.137 0-272.092 0-272.092-76.068V757.76c0-143.36 119.955-263.314 269.166-263.314h160.914c149.212 0 269.166 117.028 269.166 263.314v14.629c2.926 76.068-122.88 76.068-269.166 76.068z m-87.771-374.491c-117.029 0-213.577-93.623-213.577-207.726S386.194 58.514 503.223 58.514 716.8 152.137 716.8 266.24s-93.623 207.726-213.577 207.726z" p-id="2649" fill="#515151"></path><path d="M590.994 848.457H433.006c-152.137 0-272.092 0-272.092-76.068V757.76c0-143.36 119.955-263.314 269.166-263.314h160.914c149.212 0 269.166 117.028 269.166 263.314v14.629c2.926 76.068-122.88 76.068-269.166 76.068z m-87.771-374.491c-117.029 0-213.577-93.623-213.577-207.726S386.194 58.514 503.223 58.514 716.8 152.137 716.8 266.24s-93.623 207.726-213.577 207.726z" p-id="2650" fill="#515151"></path></svg>