<svg t="1570537768010" class="icon" viewBox="0 0 1024 1024" version="1.1" xmlns="http://www.w3.org/2000/svg" p-id="7232" width="16" height="16"><path d="M204.80077 0h614.4C931.84077 0 1024.00077 92.16 1024.00077 204.8v614.4c0 112.64-92.16 204.8-204.8 204.8H204.80077C92.16077 1024 0.00077 931.84 0.00077 819.2V204.8C0.00077 92.16 92.16077 0 204.80077 0z" fill="#FF002B" p-id="7233"></path><path d="M927.37277 1014.202a143.034 143.034 0 0 1-40.308 5.958 155.206 155.206 0 0 0 40.308-5.958z" fill="#FFFFFF" p-id="7234"></path><path d="M935.26277 969.24a112.128 112.128 0 0 0-106.636-112.082 7.052 7.052 0 0 0-5.98-2.141 6.819 6.819 0 0 0-5.959 2.14h13.01c17.059 7.89 30.068 54.971 30.068 112.082a354.863 354.863 0 0 1-4.05 50.921h30.278a124.881 124.881 0 0 0 40.1-5.958 102.819 102.819 0 0 0 8.96-44.963h0.232z" fill="#FFFFFF" p-id="7235"></path><path d="M206.89577 857.367a8.82 8.82 0 0 0-11.939 0h11.94z" fill="#111111" p-id="7236"></path><path d="M193.86377 857.158A112.128 112.128 0 0 0 87.22777 969.239a106.737 106.737 0 0 0 11.101 44.963 128.093 128.093 0 0 0 40.099 5.958h30.278a391.052 391.052 0 0 1-3.84-50.92c-1.048-57.112 11.962-104.193 29.02-112.082z m621.963 0a112.128 112.128 0 0 0-106.635 112.081 96.884 96.884 0 0 0 13.009 50.921h68.236a388.492 388.492 0 0 1-4.05-50.92c0-57.112 12.172-104.193 29.23-112.082h0.21z m-282.6 89.065h-42.66c-13.218 0-17.058 5.98-11.1 14.917l13.032 17.06c4.026 5.957 11.078 14.894 12.986 18.943 1.932 4.05 2.141 1.932 6.19 1.932a8.75 8.75 0 0 0 5.982-1.932c4.05-4.05 8.099-12.986 13.01-18.944l11.077-17.059c8.122-8.936 4.05-14.894-8.96-14.894h0.442z m-326.33-89.065c17.058 7.89 32.209 54.97 32.209 112.081a354.863 354.863 0 0 1-4.492 50.921h68.468a106.45 106.45 0 0 0 13.033-50.92 117.248 117.248 0 0 0-109.219-112.105z m720.476 157.044a154.461 154.461 0 0 0 53.76-30.045 203.31 203.31 0 0 1-53.108 30.022h-0.652z" fill="#FFFFFF" p-id="7237"></path><path d="M47.12877 984.157A139.73 139.73 0 0 1 0.00177 882.083a133.12 133.12 0 0 0 47.127 102.074z m48.221 30.022a121.181 121.181 0 0 1-51.2-30.022 211.481 211.481 0 0 0 51.2 30.022z" fill="#111111" p-id="7238"></path><path d="M977.50277 682.868c-39.029-22.807-81.687 19.177-87.25 28.114-53.294 61.16-112.616 135.098-219.043 135.098H351.28077c-106.635 0-163.793-76.079-219.043-135.936-7.68-8.099-46.917-51.153-87.016-27.276C8.96077 704.163 2.56077 770.863 0.00077 814.964v70.098a133.12 133.12 0 0 0 47.151 101.865 161.953 161.953 0 0 0 51.386 30.021 103.68 103.68 0 0 1-11.077-44.94 112.337 112.337 0 0 1 106.635-112.08 7.68 7.68 0 0 1 5.981-1.91 7.913 7.913 0 0 1 6.168 1.91 112.547 112.547 0 0 1 106.659 112.08 97.904 97.904 0 0 1-13.033 51.13h421.469a106.45 106.45 0 0 1-13.01-51.13 112.337 112.337 0 0 1 106.636-112.08 7.913 7.913 0 0 1 6.19-1.91 7.47 7.47 0 0 1 5.982 1.91 112.337 112.337 0 0 1 106.635 112.08 106.45 106.45 0 0 1-11.077 44.964 151.901 151.901 0 0 0 53.294-30.045 133.12 133.12 0 0 0 45.242-99.934v-70.958c0-46.034-7.051-112.082-42.659-132.957l-1.07-0.233zM543.46577 961.14l-10.891 15.128a78.822 78.822 0 0 0-13.22 18.967 10.24 10.24 0 0 1-7.889 4.05 9.17 9.17 0 0 1-6.19-2.142c-3.84-4.05-7.89-12.986-13.01-18.944l-13.009-17.059c-5.981-7.89 0-14.894 11.101-14.894h42.659c13.01 0 17.059 5.958 10.868 14.894h-0.419z" fill="#111111" p-id="7239"></path><path d="M828.83677 857.158h-13.01c-17.059 7.89-30.068 54.97-30.068 112.081 0 17.013 1.163 34.025 3.398 50.921h66.327a352.069 352.069 0 0 0 4.073-50.92c0-57.112-14.08-104.193-31.14-112.082h0.42z m-621.94 0h-13.033c-17.036 7.89-32.187 54.97-32.187 112.081a388.7 388.7 0 0 0 4.05 50.921h66.327c2.56-16.85 3.933-33.862 4.05-50.92 0-57.112-12.149-104.193-29.208-112.082z" fill="#111111" p-id="7240"></path><path d="M341.27277 353.862h146.735v-38.144H336.57077v-80.314h136.704v-40.728H161.65377v38.168h136.96v80.965H146.73577v37.935H293.26077c-14.917 57.088-61.207 106.543-146.525 155.113l18.99 34.094c53.319-30.045 119.646-74.147 153.787-142.126a215.831 215.831 0 0 0 34.118 51.13 447.86 447.86 0 0 0 119.645 90.996l18.99-34.094c-89.367-46.872-136.704-95.884-151.645-152.995h0.652z m339.55-66.048h38.166v-31.116h83.41v31.977h38.167v-31.977h38.167v-38.982h-38.795v-23.04h-38.19v25.158H718.36077V194.7h-38.167v25.134H643.91077v37.935h36.258l0.652 30.045z m-78.08-73.728a93.696 93.696 0 0 0-74.218-19.177h-4.05v38.144h5.982a96.489 96.489 0 0 1 47.337 7.89 23.658 23.658 0 0 1 5.98 18.967v12.986l-59.298 36.003 18.99 34.094 40.309-22.365v42.613l-59.3 36.003 19.2 34.094 40.1-23.017v31.977a50.27 50.27 0 0 1-11.101 30.022 202.59 202.59 0 0 1-49.269 40.076l19.2 34.094a191.907 191.907 0 0 0 59.3-49.222 97.745 97.745 0 0 0 18.967-54.97V262.865a76.66 76.66 0 0 0-18.107-48.989v0.233z m40.33 99.933v174.08a56.483 56.483 0 0 0 57.159 57.111h119.645a56.506 56.506 0 0 0 57.157-57.111V313.786l-233.96 0.233z m98.305 191.767h-40.1a18.548 18.548 0 0 1-19.176-18.967v-38.354h59.276v57.321z m0-96.093H682.52077v-57.74h59.299l-0.442 57.74z m98.56 79.058a18.339 18.339 0 0 1-18.99 18.967h-40.31v-59.253h59.3v40.262z m0-79.058h-59.3v-57.74h59.3v57.74z" fill="#FFFFFF" p-id="7241"></path></svg>