<?xml version="1.0" standalone="no"?><!DOCTYPE svg PUBLIC "-//W3C//DTD SVG 1.1//EN" "http://www.w3.org/Graphics/SVG/1.1/DTD/svg11.dtd"><svg t="1570542885175" class="icon" viewBox="0 0 1024 1024" version="1.1" xmlns="http://www.w3.org/2000/svg" p-id="3123" width="16" height="16" xmlns:xlink="http://www.w3.org/1999/xlink"><defs><style type="text/css"></style></defs><path d="M556.9024 153.7536C470.4256 86.016 311.4496 34.0992 311.4496 34.0992s39.7824 66.56 47.104 141.312C179.8144 234.8032 51.2 396.7488 51.2 587.5712c0 240.7936 205.0048 436.1216 457.7792 436.1216 252.7744 0 457.6256-195.328 457.6256-436.224 0-225.4848-179.456-410.8288-409.6-433.664h-0.1024z" fill="#33C9F2" p-id="3124"></path><path d="M785.0496 387.4304c-38.4 9.8816-56.0128 22.016-91.392 29.1328 39.2704 22.016 70.4 97.9456 29.8496 170.24 36.9152 0 58.9312-1.792 92.5696-1.792 24.4736-39.3728 25.344-152.064-31.0272-197.632z m-244.48 28.2624c-38.5536 9.8304-56.1664 21.9648-91.4432 29.0816 39.168 22.1184 70.4 97.9968 29.696 170.2912 37.0176 0 58.9824-1.8432 92.5696-1.8432 24.576-39.3216 25.3952-152.1664-30.8736-197.5296h0.0512z" fill="#000000" p-id="3125"></path><path d="M178.944 625.3568c-10.2912 19.456-39.168 16.7936-45.2096-4.4032-14.6432-51.6096-27.136-131.072 1.9456-205.312C198.5024 255.0784 393.5232 194.56 393.5232 194.56s-22.528-104.96-51.712-121.5488c94.6688 25.4976 166.656 99.4304 166.656 99.4304s92.928 0.768 186.0096 47.7184c21.504 10.8544 15.5136 43.2128-8.4992 45.9776-165.1712 19.1488-389.3248 136.704-507.0336 359.2192" fill="#78DBF6" p-id="3126"></path><path d="M362.496 196.608S51.6096 287.0784 102.6048 599.3472c6.3488 35.6864 15.5648 39.168 15.5648 39.168s-17.664-163.2256 45.568-266.0352C226.9696 269.6704 362.5472 196.608 362.5472 196.608m-15.2576-123.648s55.7056 70.656 52.0192 108.032l-19.456 7.68s4.096-57.1392-32.5632-115.712" fill="#FFFFFF" p-id="3127"></path></svg>